<?xml version="1.0" standalone="no"?>
<!DOCTYPE svg PUBLIC "-//W3C//DTD SVG 20010904//EN"
 "http://www.w3.org/TR/2001/REC-SVG-20010904/DTD/svg10.dtd">
<svg version="1.0" xmlns="http://www.w3.org/2000/svg"
 width="600.000000pt" height="600.000000pt" viewBox="0 0 600.000000 600.000000"
 preserveAspectRatio="xMidYMid meet">

<g transform="translate(0.000000,600.000000) scale(0.100000,-0.100000)"
fill="#000000" stroke="none">
<path d="M1857 5809 c-82 -19 -190 -97 -240 -174 -54 -81 -74 -150 -97 -340
-12 -94 -15 -116 -30 -205 -5 -30 -12 -71 -14 -90 -5 -38 -20 -141 -36 -235
-6 -33 -12 -76 -14 -95 -2 -19 -7 -46 -10 -60 -3 -14 -7 -38 -10 -55 -2 -16
-11 -70 -19 -120 -9 -49 -23 -141 -32 -203 -9 -62 -18 -123 -21 -135 -2 -12
-18 -110 -34 -217 -17 -107 -41 -262 -55 -345 -13 -82 -36 -226 -50 -320 -14
-93 -30 -197 -35 -230 -6 -33 -13 -74 -15 -92 -2 -18 -6 -40 -9 -50 -3 -10 -8
-40 -11 -68 -5 -47 -8 -67 -20 -140 -7 -38 -26 -162 -31 -198 -2 -15 -6 -39
-9 -55 -6 -33 -31 -200 -39 -264 -4 -26 -8 -53 -11 -60 -2 -7 -7 -31 -10 -53
-3 -22 -10 -65 -15 -95 -5 -30 -12 -73 -15 -95 -3 -22 -9 -65 -15 -95 -5 -30
-12 -75 -15 -100 -7 -53 -15 -101 -43 -270 -24 -144 -83 -513 -109 -677 -16
-108 -16 -116 1 -189 21 -87 44 -133 95 -187 67 -71 195 -127 290 -127 57 0
157 30 214 64 90 52 178 189 192 299 8 65 44 321 50 362 3 17 9 60 15 96 5 36
12 72 14 80 3 8 7 37 10 64 3 28 15 106 26 175 12 69 23 141 26 160 9 74 27
156 40 180 28 56 85 89 330 185 65 26 124 50 129 55 26 19 115 40 172 40 50 0
82 -7 148 -35 247 -102 625 -156 884 -126 595 70 1094 374 1445 879 97 140
223 400 251 518 3 10 16 57 30 103 14 46 27 98 29 115 2 17 7 42 10 56 6 26
11 64 23 185 14 133 9 322 -11 455 -27 177 -27 174 -76 345 -59 207 -161 410
-317 635 -58 84 -224 253 -338 344 -158 127 -320 220 -496 286 -46 17 -95 36
-107 41 -48 19 -291 68 -391 78 -127 13 -1569 13 -1624 0z m1508 -614 c221
-20 435 -97 625 -225 359 -242 565 -584 625 -1038 14 -101 3 -305 -21 -402 -7
-30 -16 -71 -19 -90 -18 -103 -104 -293 -197 -431 -70 -104 -198 -245 -293
-322 -61 -49 -183 -124 -275 -169 -185 -90 -353 -128 -564 -128 -202 0 -396
40 -540 111 -58 29 -104 37 -121 20 -6 -5 -53 -25 -105 -46 -52 -20 -108 -43
-125 -50 -16 -8 -109 -46 -205 -85 -96 -39 -193 -80 -215 -90 -50 -23 -85 -33
-85 -25 0 3 15 61 34 128 18 67 39 142 45 167 7 25 16 59 21 75 5 17 24 86 43
155 19 69 44 152 56 185 28 80 27 101 -15 179 -68 128 -110 237 -130 336 -2
14 -11 50 -18 80 -13 53 -25 154 -30 250 -5 104 39 366 82 485 39 111 111 250
182 354 32 48 187 210 262 276 74 64 320 203 391 220 15 4 27 10 27 14 0 4 10
7 23 9 12 1 50 10 84 21 34 11 108 25 165 31 57 6 104 13 105 14 4 4 98 -1
188 -9z"/>
</g>
</svg>
