<?xml version="1.0" standalone="no"?>
<!DOCTYPE svg PUBLIC "-//W3C//DTD SVG 20010904//EN"
 "http://www.w3.org/TR/2001/REC-SVG-20010904/DTD/svg10.dtd">
<svg version="1.0" xmlns="http://www.w3.org/2000/svg"
 width="600.000000pt" height="600.000000pt" viewBox="0 0 600.000000 600.000000"
 preserveAspectRatio="xMidYMid meet">

<g transform="translate(0.000000,600.000000) scale(0.100000,-0.100000)"
fill="currentColor" stroke="none">
<path d="M1845 5802 c-112 -39 -200 -113 -249 -210 -36 -72 -29 -36 -136 -717
-22 -137 -60 -378 -85 -535 -25 -157 -59 -370 -75 -475 -27 -175 -126 -805
-250 -1590 -28 -176 -62 -394 -75 -485 -14 -91 -39 -244 -55 -340 -69 -409
-130 -829 -130 -890 0 -197 137 -355 335 -388 165 -27 323 46 410 189 41 67
52 113 109 474 19 121 54 337 76 480 23 143 49 277 57 298 27 62 68 88 273
171 107 43 226 92 263 108 103 44 119 44 231 4 113 -41 241 -76 371 -103 71
-14 140 -18 330 -18 210 0 254 3 352 23 371 75 685 233 953 478 438 400 670
930 670 1527 0 333 -72 637 -221 937 -262 526 -720 894 -1278 1026 -216 51
-259 54 -1071 53 -690 0 -759 -1 -805 -17z m1670 -207 c359 -54 707 -228 966
-485 222 -221 406 -551 478 -860 86 -368 67 -745 -56 -1085 -56 -156 -137
-311 -230 -439 -23 -32 -40 -63 -37 -68 3 -5 1 -7 -3 -6 -5 2 -35 -27 -66 -63
-209 -246 -506 -439 -831 -539 -190 -58 -241 -65 -491 -65 -296 0 -356 11
-684 130 -112 41 -169 34 -351 -40 -80 -32 -147 -62 -148 -67 -2 -4 -7 -6 -11
-4 -13 8 -269 -101 -326 -139 -65 -43 -119 -114 -145 -189 -11 -30 -28 -112
-40 -183 -11 -70 -44 -283 -75 -473 -90 -561 -82 -528 -134 -583 -39 -42 -74
-57 -136 -57 -71 0 -125 27 -165 81 -38 54 -45 95 -31 182 15 86 70 429 111
692 16 105 50 318 75 475 42 264 81 510 155 980 16 102 54 345 85 540 93 592
114 725 155 985 198 1264 183 1189 242 1241 61 56 20 53 838 54 619 0 773 -3
855 -15z"/>
<path d="M3135 5188 c-218 -14 -438 -91 -644 -225 -106 -69 -281 -239 -360
-350 -156 -219 -247 -490 -258 -768 -10 -229 37 -446 142 -664 36 -73 65 -141
65 -150 0 -9 -16 -70 -35 -136 -40 -135 -185 -652 -185 -660 0 -5 -16 -12 280
110 129 53 292 119 361 147 l127 50 98 -40 c204 -82 341 -107 563 -99 225 7
346 38 546 138 398 198 679 579 755 1024 75 441 -69 901 -383 1217 -295 297
-657 434 -1072 406z m314 -224 c295 -52 576 -238 747 -495 102 -152 164 -312
194 -501 18 -108 8 -329 -18 -439 -96 -398 -372 -713 -745 -853 -284 -106
-594 -91 -873 45 -55 27 -105 49 -110 49 -6 0 -110 -40 -233 -90 -123 -49
-227 -90 -232 -90 -4 0 1 28 11 63 10 34 41 144 70 245 l51 183 -29 47 c-132
207 -202 441 -202 671 0 187 34 338 115 509 64 134 124 219 234 331 125 127
247 208 406 268 207 79 391 96 614 57z"/>
</g>
</svg>
